<mxfile host="app.diagrams.net" modified="2021-10-07T05:11:50.607Z" agent="5.0 (Linux; Android 9; SM-A505F) AppleWebKit/537.36 (KHTML, like Gecko) Chrome/92.0.4515.159 Mobile Safari/537.36" etag="-H4W4OT6S-nIfc55YnQX" version="15.4.3" type="github">
  <diagram id="fH11Y2RE2Tmdm4WMDyaV" name="Page-1">
    <mxGraphModel dx="1912" dy="3680" grid="0" gridSize="10" guides="1" tooltips="1" connect="1" arrows="1" fold="1" page="0" pageScale="1" pageWidth="827" pageHeight="1169" math="0" shadow="0">
      <root>
        <mxCell id="0" />
        <mxCell id="1" parent="0" />
        <mxCell id="EBeELtAtXzAZBF_FJHkD-94" style="edgeStyle=none;curved=1;sketch=1;hachureGap=4;orthogonalLoop=1;jettySize=auto;html=1;labelBackgroundColor=#1A1A1A;labelBorderColor=#000000;fontFamily=Architects Daughter;fontSource=https%3A%2F%2Ffonts.googleapis.com%2Fcss%3Ffamily%3DArchitects%2BDaughter;fontSize=20;fontColor=#CC6600;endArrow=none;startSize=14;endSize=14;strokeColor=#FF6392;fillColor=#FFE45E;" parent="1" source="EBeELtAtXzAZBF_FJHkD-3" target="EBeELtAtXzAZBF_FJHkD-4" edge="1">
          <mxGeometry relative="1" as="geometry" />
        </mxCell>
        <mxCell id="EBeELtAtXzAZBF_FJHkD-3" value="" style="shape=umlActor;verticalLabelPosition=bottom;verticalAlign=top;html=1;outlineConnect=0;sketch=1;hachureGap=4;pointerEvents=0;fontFamily=Architects Daughter;fontSource=https%3A%2F%2Ffonts.googleapis.com%2Fcss%3Ffamily%3DArchitects%2BDaughter;fontSize=20;fillColor=#FFE45E;strokeColor=#FF6392;fontColor=#5AA9E6;" parent="1" vertex="1">
          <mxGeometry x="81" y="446" width="109" height="155" as="geometry" />
        </mxCell>
        <mxCell id="EBeELtAtXzAZBF_FJHkD-4" value="&lt;font style=&quot;vertical-align: inherit&quot;&gt;&lt;font style=&quot;vertical-align: inherit&quot;&gt;&lt;font style=&quot;vertical-align: inherit&quot;&gt;&lt;font style=&quot;vertical-align: inherit&quot;&gt;Менеджер игрока&lt;/font&gt;&lt;/font&gt;&lt;br&gt;&lt;br&gt;&lt;/font&gt;&lt;/font&gt;" style="shape=umlActor;verticalLabelPosition=bottom;verticalAlign=top;html=1;outlineConnect=0;sketch=1;hachureGap=4;pointerEvents=0;fontFamily=Architects Daughter;fontSource=https%3A%2F%2Ffonts.googleapis.com%2Fcss%3Ffamily%3DArchitects%2BDaughter;fontSize=20;direction=east;fillColor=#FFE45E;strokeColor=#FF6392;fontColor=#5AA9E6;" parent="1" vertex="1">
          <mxGeometry x="-90" y="-19" width="130" height="158" as="geometry" />
        </mxCell>
        <mxCell id="EBeELtAtXzAZBF_FJHkD-5" value="" style="ellipse;whiteSpace=wrap;html=1;sketch=1;hachureGap=4;pointerEvents=0;fontFamily=Architects Daughter;fontSource=https%3A%2F%2Ffonts.googleapis.com%2Fcss%3Ffamily%3DArchitects%2BDaughter;fontSize=20;fillColor=#FFE45E;strokeColor=#FF6392;fontColor=#5AA9E6;" parent="1" vertex="1">
          <mxGeometry x="209.5" y="129.5" width="323" height="73" as="geometry" />
        </mxCell>
        <mxCell id="EBeELtAtXzAZBF_FJHkD-12" value="" style="ellipse;whiteSpace=wrap;html=1;sketch=1;hachureGap=4;pointerEvents=0;fontFamily=Architects Daughter;fontSource=https%3A%2F%2Ffonts.googleapis.com%2Fcss%3Ffamily%3DArchitects%2BDaughter;fontSize=20;direction=west;fillColor=#FFE45E;strokeColor=#FF6392;fontColor=#5AA9E6;" parent="1" vertex="1">
          <mxGeometry x="209.5" y="432" width="307.5" height="125" as="geometry" />
        </mxCell>
        <mxCell id="EBeELtAtXzAZBF_FJHkD-13" value="" style="shape=stencil(ZY9LDoAwCERPw9ZgOYKfe5hYLbG2ptbf7W3DQqO7AebBAFStpls0KFxj8JM+uI8GqAal2BkdOCYF1ABVgw96DH5zvdRLl51ZzX7PG07hSsQCMWMKr1+rFcSyeyE/4GtP4jk3sLWS9j3/xksteY2aGw==);fillColor=none;sketch=0;hachureGap=4;pointerEvents=0;fontFamily=Architects Daughter;fontSource=https%3A%2F%2Ffonts.googleapis.com%2Fcss%3Ffamily%3DArchitects%2BDaughter;fontSize=20;strokeColor=#FF6392;fontColor=#5AA9E6;" parent="1" vertex="1">
          <mxGeometry x="401.729939778646" y="740.4110717773438" width="0.223236083984375" height="0.24180094401041669" as="geometry" />
        </mxCell>
        <mxCell id="EBeELtAtXzAZBF_FJHkD-22" value="" style="shape=stencil(ZY9bDoQgDEVX01/ToUvwsQ8TURoZMIiv3QvpJBLn7/b2nj6A6tX0iwaFawx+1gcP0QA1oBQ7owPHpIBaoHr0QU/Bb26QeulzMquv3/OEUzisEDOk8HoZncQtuyL+wT+gsH5IEs+6ka2Va8v++7xkyWvU3g==);fillColor=none;sketch=0;hachureGap=4;pointerEvents=0;fontFamily=Architects Daughter;fontSource=https%3A%2F%2Ffonts.googleapis.com%2Fcss%3Ffamily%3DArchitects%2BDaughter;fontSize=20;strokeColor=#FF6392;fontColor=#5AA9E6;" parent="1" vertex="1">
          <mxGeometry x="333.48474839154414" y="196.63311767578125" width="0.8272178500305927" height="0.08534749348949416" as="geometry" />
        </mxCell>
        <mxCell id="EBeELtAtXzAZBF_FJHkD-26" value="" style="ellipse;whiteSpace=wrap;html=1;rounded=0;sketch=1;hachureGap=4;pointerEvents=0;fontFamily=Architects Daughter;fontSource=https%3A%2F%2Ffonts.googleapis.com%2Fcss%3Ffamily%3DArchitects%2BDaughter;fontSize=20;fontColor=#5AA9E6;strokeColor=#FF6392;fillColor=#FFE45E;" parent="1" vertex="1">
          <mxGeometry x="179" y="-43" width="475" height="122" as="geometry" />
        </mxCell>
        <mxCell id="EBeELtAtXzAZBF_FJHkD-42" value="" style="shape=umlActor;verticalLabelPosition=bottom;verticalAlign=top;html=1;outlineConnect=0;sketch=1;hachureGap=4;pointerEvents=0;fontFamily=Architects Daughter;fontSource=https%3A%2F%2Ffonts.googleapis.com%2Fcss%3Ffamily%3DArchitects%2BDaughter;fontSize=20;direction=east;fillColor=#FFE45E;strokeColor=#FF6392;fontColor=#5AA9E6;rounded=0;" parent="1" vertex="1">
          <mxGeometry x="792" y="26" width="88" height="161" as="geometry" />
        </mxCell>
        <mxCell id="EBeELtAtXzAZBF_FJHkD-55" value="" style="ellipse;whiteSpace=wrap;html=1;rounded=0;sketch=1;hachureGap=4;pointerEvents=0;fontFamily=Architects Daughter;fontSource=https%3A%2F%2Ffonts.googleapis.com%2Fcss%3Ffamily%3DArchitects%2BDaughter;fontSize=20;fontColor=#5AA9E6;strokeColor=#FF6392;fillColor=#FFE45E;" parent="1" vertex="1">
          <mxGeometry x="854" y="-62" width="265" height="100" as="geometry" />
        </mxCell>
        <mxCell id="EBeELtAtXzAZBF_FJHkD-76" value="&lt;font style=&quot;vertical-align: inherit&quot;&gt;&lt;font style=&quot;vertical-align: inherit&quot;&gt;Надо спросить мои клиенты&amp;nbsp;&lt;/font&gt;&lt;/font&gt;" style="text;html=1;align=center;verticalAlign=middle;resizable=0;points=[];autosize=1;strokeColor=none;fillColor=none;rounded=0;sketch=1;hachureGap=4;pointerEvents=0;fontFamily=Permanent Marker;fontSource=https%3A%2F%2Ffonts.googleapis.com%2Fcss%3Ffamily%3DPermanent%2BMarker;fontSize=20;fontColor=#CC6600;" parent="1" vertex="1">
          <mxGeometry x="242.00000000000006" y="152" width="294" height="28" as="geometry" />
        </mxCell>
        <mxCell id="EBeELtAtXzAZBF_FJHkD-78" value="&lt;font style=&quot;vertical-align: inherit&quot;&gt;&lt;font style=&quot;vertical-align: inherit&quot;&gt;Texte&lt;/font&gt;&lt;/font&gt;" style="text;html=1;align=center;verticalAlign=middle;resizable=0;points=[];autosize=1;strokeColor=none;fillColor=none;rounded=0;sketch=1;hachureGap=4;pointerEvents=0;fontFamily=Permanent Marker;fontSource=https%3A%2F%2Ffonts.googleapis.com%2Fcss%3Ffamily%3DPermanent%2BMarker;fontSize=20;fontColor=#CC6600;" parent="1" vertex="1">
          <mxGeometry x="288" y="-458" width="63" height="28" as="geometry" />
        </mxCell>
        <mxCell id="EBeELtAtXzAZBF_FJHkD-79" value="&lt;font style=&quot;vertical-align: inherit&quot;&gt;&lt;font style=&quot;vertical-align: inherit&quot;&gt;&lt;font style=&quot;vertical-align: inherit&quot;&gt;&lt;font style=&quot;vertical-align: inherit&quot;&gt;оманда сделала тебе интересное редложение,&lt;br&gt;Тебе надо думать про этот&amp;nbsp;&lt;br&gt;&lt;/font&gt;&lt;/font&gt;&lt;/font&gt;&lt;/font&gt;" style="text;html=1;align=center;verticalAlign=middle;resizable=0;points=[];autosize=1;strokeColor=none;fillColor=none;rounded=0;sketch=1;hachureGap=4;pointerEvents=0;fontFamily=Permanent Marker;fontSource=https%3A%2F%2Ffonts.googleapis.com%2Fcss%3Ffamily%3DPermanent%2BMarker;fontSize=20;fontColor=#CC6600;" parent="1" vertex="1">
          <mxGeometry x="201" y="-21" width="459" height="52" as="geometry" />
        </mxCell>
        <mxCell id="EBeELtAtXzAZBF_FJHkD-87" value="&lt;font style=&quot;vertical-align: inherit&quot;&gt;&lt;font style=&quot;vertical-align: inherit&quot;&gt;&amp;nbsp;&lt;/font&gt;&lt;/font&gt;" style="text;html=1;align=center;verticalAlign=middle;resizable=0;points=[];autosize=1;strokeColor=none;fillColor=none;rounded=0;shadow=1;sketch=1;hachureGap=4;fillStyle=solid;pointerEvents=1;fontFamily=Architects Daughter;fontSource=https%3A%2F%2Ffonts.googleapis.com%2Fcss%3Ffamily%3DArchitects%2BDaughter;fontSize=20;" parent="1" vertex="1">
          <mxGeometry x="172" y="985" width="18" height="28" as="geometry" />
        </mxCell>
        <mxCell id="EBeELtAtXzAZBF_FJHkD-90" value="&lt;font style=&quot;vertical-align: inherit&quot;&gt;&lt;font style=&quot;vertical-align: inherit&quot;&gt;&lt;font style=&quot;vertical-align: inherit&quot;&gt;&lt;font style=&quot;vertical-align: inherit&quot;&gt;&amp;nbsp; &amp;nbsp; &amp;nbsp; &amp;nbsp; &amp;nbsp; &amp;nbsp; Менеджер&lt;br&gt;&amp;nbsp; &amp;nbsp; &amp;nbsp; &amp;nbsp; &amp;nbsp; &amp;nbsp; Команда&amp;nbsp;&lt;br&gt;&lt;/font&gt;&lt;/font&gt;&lt;/font&gt;&lt;/font&gt;" style="text;html=1;align=center;verticalAlign=middle;resizable=0;points=[];autosize=1;strokeColor=none;fillColor=none;rounded=0;shadow=1;sketch=1;hachureGap=4;fillStyle=solid;pointerEvents=1;fontFamily=Architects Daughter;fontSource=https%3A%2F%2Ffonts.googleapis.com%2Fcss%3Ffamily%3DArchitects%2BDaughter;fontSize=20;" parent="1" vertex="1">
          <mxGeometry x="4.5" y="604" width="205" height="52" as="geometry" />
        </mxCell>
        <mxCell id="EBeELtAtXzAZBF_FJHkD-93" style="edgeStyle=none;curved=1;sketch=1;hachureGap=4;orthogonalLoop=1;jettySize=auto;html=1;labelBackgroundColor=#1A1A1A;labelBorderColor=#000000;fontFamily=Architects Daughter;fontSource=https%3A%2F%2Ffonts.googleapis.com%2Fcss%3Ffamily%3DArchitects%2BDaughter;fontSize=20;fontColor=#CC6600;endArrow=none;startSize=14;endSize=14;strokeColor=#FF6392;fillColor=#FFE45E;" parent="1" source="EBeELtAtXzAZBF_FJHkD-4" target="EBeELtAtXzAZBF_FJHkD-4" edge="1">
          <mxGeometry relative="1" as="geometry" />
        </mxCell>
        <mxCell id="EBeELtAtXzAZBF_FJHkD-98" value="&lt;font style=&quot;vertical-align: inherit&quot;&gt;&lt;font style=&quot;vertical-align: inherit&quot;&gt;Мы почем твои клиенты&amp;nbsp;&lt;br&gt;В нашем команда&amp;nbsp;&lt;br&gt;&lt;/font&gt;&lt;/font&gt;" style="text;html=1;align=center;verticalAlign=middle;resizable=0;points=[];autosize=1;strokeColor=none;fillColor=none;rounded=0;sketch=1;hachureGap=4;pointerEvents=0;fontFamily=Architects Daughter;fontSource=https%3A%2F%2Ffonts.googleapis.com%2Fcss%3Ffamily%3DArchitects%2BDaughter;fontSize=20;fontColor=#5AA9E6;" parent="1" vertex="1">
          <mxGeometry x="229" y="462" width="260" height="52" as="geometry" />
        </mxCell>
        <mxCell id="EBeELtAtXzAZBF_FJHkD-99" style="edgeStyle=none;curved=1;sketch=1;hachureGap=4;orthogonalLoop=1;jettySize=auto;html=1;labelBackgroundColor=#1A1A1A;labelBorderColor=#000000;fontFamily=Architects Daughter;fontSource=https%3A%2F%2Ffonts.googleapis.com%2Fcss%3Ffamily%3DArchitects%2BDaughter;fontSize=20;fontColor=#5AA9E6;endArrow=none;startSize=14;endSize=14;strokeColor=#FF6392;fillColor=#FFE45E;" parent="1" source="EBeELtAtXzAZBF_FJHkD-12" target="EBeELtAtXzAZBF_FJHkD-12" edge="1">
          <mxGeometry relative="1" as="geometry" />
        </mxCell>
        <mxCell id="EBeELtAtXzAZBF_FJHkD-100" value="" style="ellipse;whiteSpace=wrap;html=1;rounded=0;sketch=1;hachureGap=4;pointerEvents=0;fontFamily=Architects Daughter;fontSource=https%3A%2F%2Ffonts.googleapis.com%2Fcss%3Ffamily%3DArchitects%2BDaughter;fontSize=20;fontColor=#5AA9E6;strokeColor=#FF6392;fillColor=#FFE45E;" parent="1" vertex="1">
          <mxGeometry x="271" y="577" width="254" height="100" as="geometry" />
        </mxCell>
        <mxCell id="EBeELtAtXzAZBF_FJHkD-102" value="&lt;font style=&quot;vertical-align: inherit&quot;&gt;&lt;font style=&quot;vertical-align: inherit&quot;&gt;&lt;font style=&quot;vertical-align: inherit&quot;&gt;&lt;font style=&quot;vertical-align: inherit&quot;&gt;Мы будем его аплатим&lt;br&gt;&amp;nbsp; 5000000р в год&amp;nbsp;&lt;/font&gt;&lt;/font&gt;&lt;/font&gt;&lt;/font&gt;" style="text;html=1;align=center;verticalAlign=middle;resizable=0;points=[];autosize=1;strokeColor=none;fillColor=none;rounded=0;sketch=1;hachureGap=4;pointerEvents=0;fontFamily=Architects Daughter;fontSource=https%3A%2F%2Ffonts.googleapis.com%2Fcss%3Ffamily%3DArchitects%2BDaughter;fontSize=20;fontColor=#5AA9E6;" parent="1" vertex="1">
          <mxGeometry x="289" y="609" width="236" height="52" as="geometry" />
        </mxCell>
        <mxCell id="EBeELtAtXzAZBF_FJHkD-104" value="&lt;font style=&quot;vertical-align: inherit&quot;&gt;&lt;font style=&quot;vertical-align: inherit&quot;&gt;Я согласен&amp;nbsp;&lt;/font&gt;&lt;/font&gt;" style="text;html=1;align=center;verticalAlign=middle;resizable=0;points=[];autosize=1;strokeColor=none;fillColor=none;rounded=0;sketch=1;hachureGap=4;pointerEvents=0;fontFamily=Architects Daughter;fontSource=https%3A%2F%2Ffonts.googleapis.com%2Fcss%3Ffamily%3DArchitects%2BDaughter;fontSize=20;fontColor=#5AA9E6;" parent="1" vertex="1">
          <mxGeometry x="918" y="-33" width="124" height="28" as="geometry" />
        </mxCell>
        <mxCell id="EBeELtAtXzAZBF_FJHkD-105" value="&lt;font style=&quot;vertical-align: inherit&quot;&gt;&lt;font style=&quot;vertical-align: inherit&quot;&gt;&lt;font style=&quot;vertical-align: inherit&quot;&gt;&lt;font style=&quot;vertical-align: inherit&quot;&gt;Игрок&amp;nbsp;&lt;/font&gt;&lt;/font&gt;&lt;/font&gt;&lt;/font&gt;" style="text;html=1;align=center;verticalAlign=middle;resizable=0;points=[];autosize=1;strokeColor=none;fillColor=none;rounded=0;sketch=1;hachureGap=4;pointerEvents=0;fontFamily=Architects Daughter;fontSource=https%3A%2F%2Ffonts.googleapis.com%2Fcss%3Ffamily%3DArchitects%2BDaughter;fontSize=20;fontColor=#5AA9E6;" parent="1" vertex="1">
          <mxGeometry x="803" y="205" width="74" height="28" as="geometry" />
        </mxCell>
        <mxCell id="EBeELtAtXzAZBF_FJHkD-107" value="" style="shape=stencil(ZY9LDoAwCERPw9ZgOYKfe5hYLbG2ptbf7W3DQqO7AebBAFStpls0KFxj8JM+uI8GqAal2BkdOCYF1ABVgw96DH5zvdRLl51ZzX7PG07hSsQCMWMKr1+rFcSyeyE/4GtP4jk3sLWS9j3/xksteY2aGw==);fillColor=none;sketch=0;rounded=0;hachureGap=4;pointerEvents=0;fontFamily=Architects Daughter;fontSource=https%3A%2F%2Ffonts.googleapis.com%2Fcss%3Ffamily%3DArchitects%2BDaughter;fontSize=20;fontColor=#5AA9E6;html=1;" parent="1" vertex="1">
          <mxGeometry x="697.24" y="314.66" width="1.91" height="573.34" as="geometry" />
        </mxCell>
        <mxCell id="EBeELtAtXzAZBF_FJHkD-111" value="" style="curved=1;endArrow=classic;html=1;labelBackgroundColor=#1A1A1A;labelBorderColor=#000000;sketch=1;hachureGap=4;fontFamily=Architects Daughter;fontSource=https%3A%2F%2Ffonts.googleapis.com%2Fcss%3Ffamily%3DArchitects%2BDaughter;fontSize=20;fontColor=#5AA9E6;startSize=14;endSize=14;strokeColor=#FF6392;fillColor=#FFE45E;" parent="1" edge="1">
          <mxGeometry width="50" height="50" relative="1" as="geometry">
            <mxPoint x="-45" y="-55" as="sourcePoint" />
            <mxPoint x="827" y="15" as="targetPoint" />
            <Array as="points">
              <mxPoint x="428" y="-535" />
              <mxPoint x="635" y="-468" />
              <mxPoint x="673" y="-397" />
              <mxPoint x="45" y="-113" />
              <mxPoint x="719" y="-311" />
            </Array>
          </mxGeometry>
        </mxCell>
        <mxCell id="EBeELtAtXzAZBF_FJHkD-113" value="" style="shape=stencil(fZDNDsIgEISfZq8EWKHea32PJqVCRGgo/r29EA4Wib3NDny7kwHsVz0uCjhdY/BX9TRT1IAn4Nw4rYKJSQEOgP3sg7oEf3dTmZcx/8zq5h95w6twjFJCacY4fTfWuSDWuA0ikDCsiIMksvsP8CPpRAUkZ+9CE2k/EBNE1oEaIIlvA7OxthS4ff9tLFmlbRw+);fillColor=none;sketch=0;rounded=0;hachureGap=4;pointerEvents=0;fontFamily=Architects Daughter;fontSource=https%3A%2F%2Ffonts.googleapis.com%2Fcss%3Ffamily%3DArchitects%2BDaughter;fontSize=20;fontColor=#5AA9E6;html=1;" parent="1" vertex="1">
          <mxGeometry x="851.8869018554688" y="349.64365641276027" width="2.142822265625" height="2.176350911458485" as="geometry" />
        </mxCell>
        <mxCell id="EBeELtAtXzAZBF_FJHkD-115" value="" style="curved=1;endArrow=classic;html=1;labelBackgroundColor=#1A1A1A;labelBorderColor=#000000;sketch=1;hachureGap=4;fontFamily=Architects Daughter;fontSource=https%3A%2F%2Ffonts.googleapis.com%2Fcss%3Ffamily%3DArchitects%2BDaughter;fontSize=20;fontColor=#5AA9E6;startSize=14;endSize=14;strokeColor=#FF6392;fillColor=#FFE45E;" parent="1" edge="1">
          <mxGeometry width="50" height="50" relative="1" as="geometry">
            <mxPoint x="815" y="266" as="sourcePoint" />
            <mxPoint x="204" y="684" as="targetPoint" />
            <Array as="points">
              <mxPoint x="830" y="253" />
              <mxPoint x="771" y="326" />
              <mxPoint x="919" y="659" />
              <mxPoint x="929" y="365" />
              <mxPoint x="887" y="275" />
              <mxPoint x="872" y="627" />
              <mxPoint x="793" y="847" />
              <mxPoint x="815" y="343" />
              <mxPoint x="629" y="837" />
            </Array>
          </mxGeometry>
        </mxCell>
      </root>
    </mxGraphModel>
  </diagram>
</mxfile>
